<svg xmlns="http://www.w3.org/2000/svg" width="61" height="60" fill="none">
    <path d="M24.683 0c13.57 0 24.609 11.04 24.609 24.61 0 5.97-2.137 11.45-5.686 15.716l15.775 15.667a2.344 2.344 0 1 1-3.303 3.326L40.281 43.63a24.496 24.496 0 0 1-15.598 5.589 24.622 24.622 0 0 1-12.048-3.146 2.344 2.344 0 1 1 2.298-4.086 19.926 19.926 0 0 0 9.75 2.544c10.984 0 19.922-8.937 19.922-19.922 0-10.985-8.938-19.922-19.922-19.922-10.985 0-19.922 8.938-19.922 19.922 0 3.461.9 6.869 2.603 9.855a2.344 2.344 0 0 1-4.071 2.322A24.615 24.615 0 0 1 .073 24.61C.073 11.04 11.113 0 24.683 0Z" fill="#FFA765"/>
</svg>