<svg xmlns="http://www.w3.org/2000/svg" width="18" height="18" fill="none">
    <path d="m16.434 14.148-3.744-2.685a.529.529 0 0 0-.589-.018L10 12.76c-.404.122-2.285-1.012-3.82-2.88-.98-1.195-1.03-1.784-.989-1.865l1.34-2.142a.53.53 0 0 0-.02-.59L3.827 1.54a.53.53 0 0 0-.387-.219.558.558 0 0 0-.417.154L1.09 3.407C-.004 4.5-.309 6.167.332 7.553c1.482 3.205 4.445 7.565 10.14 10.138 1.362.615 2.998.291 4.077-.788l1.951-1.95a.53.53 0 0 0-.066-.805ZM15.352 0h-4.235a2.65 2.65 0 0 0-2.648 2.647v2.118c0 1.279.911 2.348 2.118 2.594v1.112a.53.53 0 0 0 .847.424l1.977-1.483h1.941A2.65 2.65 0 0 0 18 4.765V2.647A2.65 2.65 0 0 0 15.352 0Zm-4.235 4.236a.53.53 0 1 1 0-1.06.53.53 0 0 1 0 1.06Zm2.117 0a.53.53 0 1 1 0-1.06.53.53 0 0 1 0 1.06Zm2.118 0a.53.53 0 1 1 0-1.06.53.53 0 0 1 0 1.06Z" fill="url(#a)"/>
    <defs>
        <linearGradient id="a" x1="-5.815" y1="-16.877" x2="26.265" y2="6.594" gradientUnits="userSpaceOnUse">
            <stop stop-color="#FFDBDB"/>
            <stop offset="1" stop-color="#fff"/>
        </linearGradient>
    </defs>
</svg>