<svg xmlns="http://www.w3.org/2000/svg" width="30" height="30" fill="none">
    <path d="M9.842 20.629a84.402 84.402 0 0 0 3.625 4.795H11c-.276 0-.5.227-.5.508 0 .28.224.508.5.508h8c.276 0 .5-.227.5-.508a.504.504 0 0 0-.5-.508h-2.467c.108-.133.22-.27.34-.42a83.467 83.467 0 0 0 3.285-4.375 44.804 44.804 0 0 0 3.303-5.414c1.021-2.038 1.54-3.731 1.54-5.03a10.25 10.25 0 0 0-2.93-7.2.495.495 0 0 0-.485-.14.514.514 0 0 0-.221.857A9.228 9.228 0 0 1 24 10.185c0 1.138-.48 2.676-1.43 4.57a43.785 43.785 0 0 1-3.228 5.287 82.565 82.565 0 0 1-3.96 5.203.503.503 0 0 1-.763 0 82.14 82.14 0 0 1-3.961-5.202 43.791 43.791 0 0 1-3.228-5.288C6.48 12.86 6 11.322 6 10.184c0-3.682 2.166-7.008 5.5-8.445a8.919 8.919 0 0 1 7.005 0c.165.07.354.047.497-.062a.513.513 0 0 0-.106-.875c-5.092-2.183-10.96.242-13.11 5.42A10.279 10.279 0 0 0 5 10.183c0 1.3.518 2.993 1.54 5.034a44.763 44.763 0 0 0 3.302 5.41Z" fill="#24C8BC"/>
    <path d="M15 5.595c.276 0 .5-.228.5-.509a.504.504 0 0 0-.5-.508c-2.385 0-4.438 1.713-4.904 4.092-.465 2.38.787 4.761 2.99 5.69 2.204.928 4.746.144 6.071-1.873a5.149 5.149 0 0 0-.621-6.42.495.495 0 0 0-.487-.138.504.504 0 0 0-.357.363.514.514 0 0 0 .137.494 4.119 4.119 0 0 1 .497 5.136 3.963 3.963 0 0 1-4.856 1.498c-1.763-.742-2.765-2.648-2.393-4.551.372-1.903 2.015-3.274 3.923-3.274ZM29.812 27.748l-3.075-5.593a1.55 1.55 0 0 0-1.36-.799h-3.564c-.276 0-.5.228-.5.509 0 .28.224.508.5.508h3.563c.2-.004.387.102.489.278l3.074 5.592a.464.464 0 0 1-.005.47.548.548 0 0 1-.484.27H1.55a.548.548 0 0 1-.483-.27.464.464 0 0 1-.005-.47l3.074-5.592a.552.552 0 0 1 .488-.278h3.564c.276 0 .5-.228.5-.508a.504.504 0 0 0-.5-.509H4.624a1.55 1.55 0 0 0-1.361.799L.188 27.748c-.256.46-.25 1.025.016 1.48.28.484.794.779 1.346.772h26.9a1.535 1.535 0 0 0 1.346-.772c.266-.455.272-1.02.016-1.48Z" fill="#24C8BC"/>
    <path d="M24.5 23.898h-2a.497.497 0 0 0-.277.086L20.723 25a.514.514 0 0 0-.139.705.495.495 0 0 0 .694.14l1.372-.93h1.85c.276 0 .5-.228.5-.51a.504.504 0 0 0-.5-.508ZM21.5 27.457c0 .281.224.509.5.509h4c.276 0 .5-.228.5-.509a.504.504 0 0 0-.5-.508h-4c-.276 0-.5.228-.5.508ZM9 25.932c.22 0 .415-.146.48-.36A.513.513 0 0 0 9.277 25l-1.5-1.017a.497.497 0 0 0-.278-.086h-2c-.276 0-.5.228-.5.509 0 .28.224.508.5.508h1.85l1.374.932a.493.493 0 0 0 .276.085ZM4 26.949c-.276 0-.5.228-.5.508 0 .281.224.509.5.509h4c.276 0 .5-.228.5-.509a.504.504 0 0 0-.5-.508H4Z" fill="#24C8BC"/>
</svg>
