<svg xmlns="http://www.w3.org/2000/svg" width="40" height="30" fill="none">
    <path d="M36.774 0H3.226C1.447 0 0 1.463 0 3.26V26.74c0 1.798 1.447 3.26 3.226 3.26h33.548C38.553 30 40 28.538 40 26.74V3.26C40 1.463 38.553 0 36.774 0Zm-3.363 12.19c1 .442 1.926.857 2.718 1.376v12.52H3.871V3.914h22.194c.943 5.438 4.316 6.934 7.346 8.277Zm5.299 14.549a1.948 1.948 0 0 1-1.936 1.956H3.226A1.948 1.948 0 0 1 1.29 26.74V3.26c0-1.08.869-1.957 1.936-1.957h22.59c.014.456.04.89.078 1.304H3.871c-.712 0-1.29.585-1.29 1.305v22.174c0 .72.578 1.304 1.29 1.304h32.258c.712 0 1.29-.585 1.29-1.304V14.68c.805.948 1.29 2.243 1.29 4.232v7.826Zm-4.781-15.744c-3.254-1.442-6.606-2.946-6.812-9.69h9.657c1.067 0 1.936.877 1.936 1.956v10.982c-1.176-1.643-2.995-2.457-4.781-3.248Z" fill="#24C8BC"/>
    <path d="m22.287 22.629-.173.699c-.043.173-.336.155-.37.03l-.847-3.486a2.092 2.092 0 0 0-2.032-1.611c-1.153 0-2.09.948-2.09 2.114v.258c0 .227.035.452.107.668l1.216 3.688 1.223-.413-1.216-3.688a.822.822 0 0 1-.04-.256v-.258c0-.446.359-.809.8-.809.37 0 .69.254.778.617l.852 3.51c.181.642.768 1.09 1.429 1.09.683 0 1.276-.467 1.442-1.138l.172-.699c.113-.454.515-.771.978-.771.49 0 .756.366 1.183 1.013.468.711 1.051 1.595 2.256 1.595 1.206 0 1.789-.884 2.258-1.594.427-.648.692-1.014 1.184-1.014.491 0 .757.366 1.184 1.014.47.71 1.053 1.594 2.258 1.594v-1.304c-.491 0-.757-.367-1.184-1.014-.47-.71-1.052-1.595-2.258-1.595-1.205 0-1.789.885-2.258 1.595-.427.648-.692 1.014-1.183 1.014-.491 0-.757-.367-1.184-1.014-.468-.71-1.05-1.595-2.256-1.595a2.3 2.3 0 0 0-2.23 1.76ZM5.161 6.835h19.355v1.304H5.161V6.835ZM21.936 9.443h2.58v1.305h-2.58V9.443ZM5.161 9.443h15.484v1.305H5.161V9.443ZM5.161 12.052h3.871v1.304h-3.87v-1.304ZM10.323 12.052h14.193v1.304H10.323v-1.304ZM35.535 2.608h-3.87v1.305h-1.29v3.913h1.29V9.13h3.87V7.826h1.29V3.913h-1.29V2.608Zm0 3.913h-1.29v1.305h-1.29V6.52h-1.29V5.217h1.29V3.913h1.29v1.304h1.29v1.304Z" fill="#24C8BC"/>
</svg>
