<svg xmlns="http://www.w3.org/2000/svg" width="36" height="30" fill="none">
    <path d="M32.383 24.402H30.09v.764h-.764v2.293h.764v.764h2.293v-.764h.764v-2.293h-.764v-.764Zm0 2.293h-.764v.764h-.765v-.764h-.764v-.765h.764v-.764h.765v.764h.764v.765ZM33.585 10.265a1.31 1.31 0 0 0-.445-.05c.042-1.015.021-2.156-.183-3.255L31.8 1.96c-.324-1.371-1.679-1.96-2.722-1.96h-5.032c-1.119 0-2.447.787-2.722 1.96L20.168 6.96c-.204 1.097-.226 2.237-.184 3.25-1.014-.067-1.568.933-1.5 1.846.138 1.642 4.998 6.436 7.27 6.77a4.876 4.876 0 0 0 1.525.022c2.285-.295 7.212-5.117 7.353-6.785.087-1.08-.51-1.644-1.047-1.798ZM22.444 2.273c.277-.667.902-1.096 1.602-1.096h5.032c.7 0 1.325.429 1.602 1.096l.956 4.11-1.744-.003c-.28-1.612-1.665-2.842-3.33-2.842-1.66 0-3.042 1.222-3.328 2.826l-1.741-.004.951-4.087Zm6.342 4.706c0 1.248-.998 2.264-2.224 2.264-1.226 0-2.224-1.016-2.224-2.264 0-1.249.998-2.264 2.224-2.264 1.226 0 2.224 1.015 2.224 2.264Zm4.689 4.986c-.094.904-4.415 5.467-6.343 5.716a3.701 3.701 0 0 1-1.205-.018c-1.916-.266-6.197-4.814-6.286-5.701-.012-.156-.01-.4.12-.516.127-.113.28-.045.353.099.283.555 1.144.307 1.095-.316-.083-1.064-.148-2.41.038-3.693h.018l1.96.004c.266 1.63 1.659 2.88 3.337 2.88 1.673 0 3.063-1.241 3.334-2.864l1.943.004v.005h.042c.181 1.274.116 2.61.034 3.664-.05.623.815.872 1.096.314.073-.146.221-.202.347-.092.13.114.13.36.117.514Z" fill="#24C8BC"/>
    <path d="M35.35 25.825c-.8-2.11-2.37-3.925-4.24-5.14l-1.432-1.512a.574.574 0 0 0-.743-.08l-2.462 1.675-2.272-1.631a.574.574 0 0 0-.73.049l-2.104 1.975c-1.265.947-2.376 2.19-3.114 3.604-.909-2.41-2.817-4.36-5.01-5.62-.275-.346-.51-.72-.773-1.075.499-.466 1.056-1.17 1.688-2.27.377-.659.713-1.347 1.014-2.058 1.233.254 2.158-.97 2.424-2.042.317-1.269-.095-2.468-.944-2.902v-.004c.092-.904.219-2.143-.237-3.648-.188-.619-.685-2.26-2.2-3.547C12.627.236 10.83.04 9.887.044 6.38-.314 4.359 1.617 4.03 1.96c-1.055.806-1.03 1.924-.785 2.664-.168.149-.597.579-.743.988-.44 1.23-.344 2.366-.23 3.185a2.705 2.705 0 0 0-1.06 2.96c.316 1.122 1.342 1.905 2.475 1.912.307.699.65 1.374 1.036 2.02.693 1.157 1.32 1.894 1.865 2.378-.137.355-.396.843-.755 1.012C3.36 20.247 1.36 22.468.499 25.101.002 26.618 0 29.385 0 29.412c0 .325.26.588.58.588h34.84c.32 0 .58-.264.58-.588 0-1.241-.219-2.448-.65-3.587ZM2.33 11.435c-.123-.437-.036-.9.203-1.263.187.745.39 1.49.646 2.213a1.46 1.46 0 0 1-.85-.95Zm11.44 13.153c.2 0 .364.178.364.395 0 .218-.163.396-.364.396-.201 0-.365-.178-.365-.396 0-.217.164-.395.365-.395Zm2.65-14.366c.125.298.166.726.05 1.19-.11.443-.38.998-.842 1.155.274-.783.607-1.523.793-2.345ZM3.637 7.383c-.112.28-.295.541-.261.84-.109-.961.272-2.432.576-2.66.332-.249.666-.553.5-1.074-.223-.707.37-1.661.396-1.69.07-.079 1.778-1.917 4.952-1.58l.068.002c.774-.012 2.278.144 3.6 1.279 1.254 1.065 1.663 2.415 1.838 2.992.236.78.288 1.48.272 2.099a21.618 21.618 0 0 0-.267-1.385.586.586 0 0 0-.77-.418c-.914.345-1.714.406-2.445.185-.334-.101-1.361-.784-1.972-1.014 0 0-1.523-.748-3.223-.365-.623.14-1.224.334-1.757.703-.743.514-1.177 1.257-1.507 2.086Zm2.08 7.696a17.295 17.295 0 0 1-1.661-3.74l.004-.022c.123-1.15.23-2.41.654-3.494.235-.604.53-1.16 1.064-1.543.406-.29.873-.435 1.354-.534 1.151-.235 2.587.315 2.587.315.674.254 1.214.751 1.892.989.87.305 1.816.28 2.7.044.304 1.565.43 3.16.329 4.752a18.168 18.168 0 0 1-1.486 3.363c-1.103 1.923-1.86 2.4-2.454 2.615-1.06.381-2.029.096-2.3-.001-.361-.128-1.319-.468-2.683-2.744Zm6.356 4.448c-1.454 1.225-3.6 1.3-5.099.114.16-.185.399-.482.596-.896.162.08.31.14.446.189 1.125.4 2.434.353 3.507-.188.189.257.364.523.55.781Zm-10.9 9.297c.033-.935.143-2.476.43-3.352.518-1.586 1.513-3.008 2.784-4.078l.018 2.479-.904.465c-.887.456-1.439 1.325-1.439 2.27v1.075c0 .325.26.589.58.589.321 0 .582-.264.582-.589v-1.075c0-.985 1.028-1.337 1.748-1.708.657.378 1.532.74 1.532 1.642v1.141c0 .325.26.589.58.589.32 0 .58-.264.58-.589v-1.14c0-.907-.493-1.731-1.32-2.207l-.778-.447-.023-3.323c.14-.085.282-.166.426-.242 1.967 1.79 4.997 1.772 6.971.003.084.051.167.105.25.16v3.046a1.573 1.573 0 0 0-.946 1.451c0 .867.685 1.572 1.526 1.572s1.526-.705 1.526-1.572c0-.654-.392-1.216-.945-1.451V21.34c1.306 1.094 2.37 2.485 2.92 4.12.162.48.375 2.094.43 3.363H1.174Zm28.006-8.479.723.764-1.586 2.322-1.103-1.748 1.966-1.338Zm-6.033.752.77-.723 1.788 1.284-.997 1.773-1.582-2.315.02-.02Zm-4.282 7.727a25.138 25.138 0 0 0-.144-1.775c.168-.67.33-1.231.368-1.338.51-1.123 1.143-1.843 1.483-2.23.516-.586 1.13-1.028 1.694-1.557l2.005 2.935a.581.581 0 0 0 .979-.037l.872-1.508.006-.01.346-.63.438.657.863 1.49c.212.366.74.386.979.038l2.032-2.974a9.876 9.876 0 0 1 1.618 1.421c.416.457 1.282 1.406 1.864 2.942.312.823.498 1.687.554 2.576H18.863ZM27.482 6.519h-.34v-.365a.585.585 0 0 0-.58-.589c-.32 0-.58.264-.58.589v.365h-.34c-.32 0-.58.263-.58.588 0 .325.26.588.58.588h.34v.365c0 .325.26.588.58.588.32 0 .58-.263.58-.588v-.365h.34c.32 0 .58-.263.58-.588a.584.584 0 0 0-.58-.588Z" fill="#24C8BC"/>
</svg>
