<svg xmlns="http://www.w3.org/2000/svg" width="42" height="30" fill="none">
    <path d="M37.175 25.43c.453 0 .82-.373.82-.833a.827.827 0 0 0-.82-.833.827.827 0 0 0-.82.833c0 .46.367.833.82.833Z" fill="#24C8BC"/>
    <path d="M41.975 17.727a.837.837 0 0 0-.38-.516l-6.338-3.797a2.873 2.873 0 0 0-.869-1.233c-.076-.278-.41-.99-.483-1.108a2.877 2.877 0 0 0-.31-1.955 2.855 2.855 0 0 0-1.474-1.288 2.884 2.884 0 0 0-.094-2.486 2.885 2.885 0 0 0-2.465-1.528 2.877 2.877 0 0 0-.351-1.674A2.857 2.857 0 0 0 27.484.769a2.856 2.856 0 0 0-2.178.249c-.081.044-1.506.813-3.52 1.913L17.56.409a2.863 2.863 0 0 0-1.471-.41c-1.001 0-1.944.535-2.46 1.394a2.877 2.877 0 0 0-.33 2.18l.006.024c-.737.18-1.39.648-1.788 1.311a2.876 2.876 0 0 0-.33 2.18l.006.023a2.89 2.89 0 0 0-1.789 1.312 2.871 2.871 0 0 0-.377 1.94 6.026 6.026 0 0 0-.369.4 2.873 2.873 0 0 0-1.78 2.735L.431 17.061a.83.83 0 0 0-.398.502.845.845 0 0 0 .073.64l6.302 11.372a.818.818 0 0 0 1.11.321l4.37-2.444a.83.83 0 0 0 .394-.503.845.845 0 0 0-.074-.637l-.82-1.477 2.064-1.159a8.373 8.373 0 0 0 3.82.924c1.423 0 2.869-.361 4.245-1.08a8.786 8.786 0 0 0 3.277.647 8.382 8.382 0 0 0 3.56-.799l2.02 1.23-.87 1.447a.851.851 0 0 0-.096.635.836.836 0 0 0 .375.515l4.283 2.596a.815.815 0 0 0 1.12-.281l.768-1.278a.842.842 0 0 0-.274-1.146.812.812 0 0 0-1.127.277l-.344.574-2.873-1.742 5.833-9.691 2.877 1.715-1.647 2.742a.842.842 0 0 0 .272 1.146.813.813 0 0 0 1.128-.277v-.001l2.082-3.465a.848.848 0 0 0 .095-.637Zm-9.93.218 1.894-1.003c.63-.35 1.099-.91 1.332-1.588l.481.286-4.525 7.534-1.703-1.036s2.509-4.169 2.52-4.193ZM15.027 2.262a1.238 1.238 0 0 1 1.697-.418l1.562.938a1.21 1.21 0 0 1 .419 1.662c-.09.149-.209.272-.345.367l-.225.124c-.34.144-.74.14-1.083-.047l-1.606-.964a1.211 1.211 0 0 1-.42-1.662Zm-2.112 3.515a1.237 1.237 0 0 1 1.696-.418L17.346 7a1.21 1.21 0 0 1 .42 1.663 1.247 1.247 0 0 1-1.652.445l-2.78-1.67a1.21 1.21 0 0 1-.418-1.661ZM10.803 9.29a1.241 1.241 0 0 1 1.696-.418l2.813 1.689a1.21 1.21 0 0 1 .419 1.662c-.35.582-1.11.77-1.696.418l-2.812-1.69a1.21 1.21 0 0 1-.42-1.66Zm1.147 4.035a1.21 1.21 0 0 1 .419 1.662c-.35.582-1.111.77-1.697.418l-1.562-.938a1.21 1.21 0 0 1-.42-1.662 1.242 1.242 0 0 1 1.697-.419l1.563.939ZM7.438 28.038l-5.494-9.915L4.88 16.51l5.492 9.889-2.933 1.64Zm3.142-4.655-4.266-7.682 1.095-.6c.227.32.52.593.866.802l.651.39 3.396 6.113-1.742.977Zm3.463-1.27-2.703-4.866a2.875 2.875 0 0 0 2.842-2.806 2.859 2.859 0 0 0 2.95-1.348 2.876 2.876 0 0 0 .329-2.18l-.022-.08a2.864 2.864 0 0 0 1.726-1.302 2.876 2.876 0 0 0 .33-2.18 2.888 2.888 0 0 0-.46-1l7.044-3.863.009-.004a1.247 1.247 0 0 1 1.693.476c.156.28.194.606.106.915-.09.318-.299.581-.59.743l-.001.001h-.001l-4.57 2.534a.84.84 0 0 0-.326 1.13c.148.278.43.435.72.435a.806.806 0 0 0 .393-.102l5.366-2.976a1.248 1.248 0 0 1 1.705.496c.309.581.068 1.327-.535 1.662l-5.328 2.954a.84.84 0 0 0-.327 1.13c.149.278.43.435.72.435a.807.807 0 0 0 .393-.102l4.973-2.759a1.248 1.248 0 0 1 1.687.48 1.225 1.225 0 0 1-.481 1.657l-5.022 2.62a.84.84 0 0 0-.357 1.122.819.819 0 0 0 1.104.363l4.55-2.363a1.247 1.247 0 0 1 1.679.484c.155.28.193.606.106.915-.09.316-.297.58-.586.741l-12.188 6.452-.014.008c-2.31 1.28-4.756 1.341-6.914.177Zm9.59.285 5.595-2.962-1.414 2.348a6.787 6.787 0 0 1-4.181.614Z" fill="#24C8BC"/>
</svg>
