<svg xmlns="http://www.w3.org/2000/svg" width="31" height="31" fill="none">
    <path d="M14.916 23.66a8.11 8.11 0 0 1-2.874-.743.682.682 0 0 0-.907.33l-.855 1.834a10.955 10.955 0 0 1-4.362-4.361l1.835-.856a.68.68 0 0 0 .33-.906 8.115 8.115 0 0 1-.744-2.875 1.366 1.366 0 0 0-1.358-1.265h-4.8A.682.682 0 0 0 .5 15.5c0 8.27 6.729 15 15 15a.682.682 0 0 0 .682-.682v-4.8c0-.71-.556-1.306-1.266-1.357Zm-.098 5.46C7.84 28.773 2.226 23.16 1.881 16.18l4.098-.001c.066.94.268 1.854.602 2.727l-1.876.874a.681.681 0 0 0-.33.907 12.322 12.322 0 0 0 5.937 5.937.682.682 0 0 0 .907-.33l.874-1.876a9.394 9.394 0 0 0 2.725.6v4.1ZM30.5 15.5c0 6.783-4.572 12.743-11.117 14.492a.683.683 0 0 1-.352-1.318 13.562 13.562 0 0 0 5.616-3.063l-1.433-1.433a.682.682 0 1 1 .964-.964l1.434 1.434a13.646 13.646 0 0 0 3.506-8.466H27.09a.682.682 0 0 1 0-1.364h2.028a13.582 13.582 0 0 0-3.512-8.461l-1.43 1.43a.68.68 0 0 1-.963 0 .682.682 0 0 1 0-.965l1.43-1.43a13.58 13.58 0 0 0-8.462-3.511v2.028a.682.682 0 0 1-1.364 0V1.882a13.647 13.647 0 0 0-8.466 3.506l1.434 1.434a.682.682 0 1 1-.964.964L5.389 6.353a13.56 13.56 0 0 0-3.064 5.616.682.682 0 0 1-1.317-.352C2.757 5.07 8.717.5 15.5.5c8.271 0 15 6.729 15 15Z" fill="#24C8BC"/>
    <path d="M14.655 12.854v.682a.683.683 0 0 1-.682.682h-.682a2.048 2.048 0 0 0-2.046 2.045v2.046c0 .376.306.682.682.682h3.41a.682.682 0 0 0 0-1.364h-2.728v-1.364c0-.376.306-.682.682-.682h.682a2.047 2.047 0 0 0 2.045-2.045v-.682a2.048 2.048 0 0 0-2.045-2.045h-2.046a.682.682 0 0 0 0 1.364h2.046c.376 0 .682.305.682.681ZM18.064 15.582h2.727v2.727a.682.682 0 0 0 1.364 0V11.49a.682.682 0 0 0-1.364 0v2.727h-2.046V11.49a.682.682 0 0 0-1.363 0V14.9c0 .376.305.681.682.681Z" fill="#24C8BC"/>
</svg>
