<svg xmlns="http://www.w3.org/2000/svg" width="38" height="30" fill="none">
    <path d="M36.4 5.725h-.491a.559.559 0 0 0-.556.561c0 .31.249.562.556.562h.49c.27 0 .49.222.49.494v10.402h-16.67a.559.559 0 0 0-.556.561c0 .31.25.562.556.562h16.67v2.18H34.87a.559.559 0 0 0-.556.562c0 .31.25.562.556.562h2.019v2.636h-6.657a3.253 3.253 0 0 0-2.672-1.408 3.253 3.253 0 0 0-2.674 1.41l-.036-.002h-9.178V22.17h16.83a.559.559 0 0 0 .556-.562.559.559 0 0 0-.556-.561h-16.83v-2.181h2.179a.559.559 0 0 0 .556-.562.559.559 0 0 0-.556-.561h-2.18v-6.272a.559.559 0 0 0-.555-.562h-4.755a.192.192 0 0 1-.19-.192V7.04c0-.107.085-.193.19-.193h9.773a.559.559 0 0 0 .556-.561.559.559 0 0 0-.556-.562h-2.677l-.444-2.353a1.151 1.151 0 0 0-1.127-.943h-1.855c-.55 0-1.024.397-1.127.943l-.444 2.353h-2.099A1.31 1.31 0 0 0 9.06 7.04v3.677a1.31 1.31 0 0 0 1.302 1.316h4.2v1.047H9.19c-.508 0-.973.26-1.242.697l-3.18 5.163-2.928.748a1.575 1.575 0 0 0-1.18 1.53V24.5c-.402.318-.661.811-.661 1.365v.504c0 .955.769 1.732 1.714 1.732h1.92A3.267 3.267 0 0 0 6.589 30a3.267 3.267 0 0 0 2.956-1.9h15.06A3.267 3.267 0 0 0 27.56 30a3.267 3.267 0 0 0 2.955-1.9h5.968c.836 0 1.517-.687 1.517-1.533V7.342a1.61 1.61 0 0 0-1.6-1.617ZM13.996 3.582a.036.036 0 0 1 .035-.03h1.855c.018 0 .032.013.035.03l.405 2.143h-2.734l.404-2.143ZM9.262 24.807a3.253 3.253 0 0 0-2.795-1.405v-3.41h8.093v4.815H9.262Zm5.298-5.938h-1.084v-4.665h1.084v4.665Zm-5.667-4.497a.35.35 0 0 1 .299-.168h3.172v4.665H6.123l2.77-4.497Zm-6.78 6.406 3.242-.786v3.653c-.296.122-.57.288-.816.488H1.772V21.22c0-.21.14-.391.34-.442Zm-.4 6.2a.606.606 0 0 1-.602-.609v-.504c0-.335.27-.608.603-.608h1.94a3.308 3.308 0 0 0-.318 1.72H1.714Zm4.876 1.899c-1.187 0-2.154-.977-2.154-2.178 0-1.2.967-2.177 2.154-2.177 1.188 0 2.154.977 2.154 2.177 0 1.2-.966 2.178-2.154 2.178Zm3.253-1.9a3.328 3.328 0 0 0-.078-1.048h14.62a3.33 3.33 0 0 0-.077 1.049H9.842Zm17.718 1.9c-1.188 0-2.154-.977-2.154-2.178 0-1.2.966-2.177 2.154-2.177 1.187 0 2.154.977 2.154 2.177 0 1.2-.967 2.178-2.154 2.178Zm8.923-1.9h-5.67a3.329 3.329 0 0 0-.078-1.048h6.154v.639c0 .226-.182.41-.406.41Z" fill="#24C8BC"/>
    <path d="M12.646 21.048h-.642a.559.559 0 0 0-.555.561c0 .31.249.562.556.562h.641a.559.559 0 0 0 .556-.562.559.559 0 0 0-.556-.561ZM28.022 12.573c3.43 0 6.22-2.82 6.22-6.287 0-3.466-2.79-6.286-6.22-6.286a6.142 6.142 0 0 0-4.426 1.87.566.566 0 0 0 .005.794c.219.218.57.216.786-.005a5.046 5.046 0 0 1 3.634-1.536c2.817 0 5.11 2.316 5.11 5.163 0 2.848-2.293 5.164-5.11 5.164s-5.108-2.316-5.108-5.164c0-.618.107-1.223.319-1.799a.563.563 0 0 0-.327-.722.554.554 0 0 0-.715.33 6.323 6.323 0 0 0-.389 2.191c0 3.467 2.79 6.287 6.22 6.287Z" fill="#24C8BC"/>
    <path d="M29.01 2.63h-1.977a.849.849 0 0 0-.844.851v.954h-.943a.849.849 0 0 0-.843.852v2c0 .469.378.851.843.851h.944v.954c0 .47.378.852.843.852h1.978a.848.848 0 0 0 .843-.852v-.954h.943a.848.848 0 0 0 .843-.852v-2a.849.849 0 0 0-.843-.851h-.943V3.48a.848.848 0 0 0-.843-.852Zm1.519 2.928v1.457h-1.231a.559.559 0 0 0-.556.562V8.82h-1.441V7.577a.559.559 0 0 0-.556-.562h-1.23V5.558h1.23a.559.559 0 0 0 .556-.562V3.752h1.441v1.244c0 .31.25.562.556.562h1.23Z" fill="#24C8BC"/>
</svg>